<svg id="Layer_1" data-name="Layer 1" xmlns="http://www.w3.org/2000/svg" viewBox="0 0 66.12 88.13"><defs><style>.cls-1{fill:#89d0c2;}</style></defs><path class="cls-1" d="M115.06,39.36l.1,56a30.33,30.33,0,0,1-4.51,16.1,33.46,33.46,0,0,1-12.12,11.65,32.63,32.63,0,0,1-16.43,4.35,31.94,31.94,0,0,1-16.42-4.4A33.34,33.34,0,0,1,53.5,111,32.19,32.19,0,0,1,49,94.43,31.49,31.49,0,0,1,53.55,77.9a33.06,33.06,0,0,1,12-12.13A32.86,32.86,0,0,1,96,64.48v9.66a27.8,27.8,0,0,1,5.47,4.94V39.36h5.37V92.82h-.11v.53a2.61,2.61,0,0,0,.06.59,3,3,0,0,1,.05.49,23.33,23.33,0,0,1-3.43,12.23,24.21,24.21,0,0,1-8.81,9,24.11,24.11,0,0,1-24.79,0,25.35,25.35,0,0,1-8.91-8.91,23.22,23.22,0,0,1-3.11-8.59H54.62a26.84,26.84,0,0,0,3.55,10.09,27.77,27.77,0,0,0,10.19,10.2,27.91,27.91,0,0,0,27.05.32,29,29,0,0,0,10.74-10.09,25.53,25.53,0,0,0,3.65-13.31l-.11-48v-8ZM58.27,80.58a25.25,25.25,0,0,0-3.75,12.24h8.37c-.07.78-.11,1.32-.11,1.61a17.83,17.83,0,0,0,2.69,9.66,19.5,19.5,0,0,0,7,7,19.1,19.1,0,0,0,19.26,0,20.28,20.28,0,0,0,7-7.14,18.5,18.5,0,0,0,2.63-9.6,13.36,13.36,0,0,0-.21-2.36c-.07-.5-.18-1.13-.32-1.88a22.3,22.3,0,0,0-1.56-4A23.52,23.52,0,0,0,96.11,81a16.88,16.88,0,0,0-5.58-4.08,18.78,18.78,0,0,0-8.43-1.82,17.83,17.83,0,0,0-9.66,2.68,19,19,0,0,0-7,7.08,22.08,22.08,0,0,0-1.29,2.58H58.49a30.39,30.39,0,0,1,2.36-5.37,24.25,24.25,0,0,1,8.91-8.91A22.72,22.72,0,0,1,82.1,69.74a23.53,23.53,0,0,1,8.48,1.61V68.13a28,28,0,0,0-9.34-1.4,27.17,27.17,0,0,0-12.45,3.44A26.73,26.73,0,0,0,58.27,80.58Z" transform="translate(-49.04 -39.36)"/></svg>