<svg width="355" height="90" viewBox="0 0 355 90" fill="none" xmlns="http://www.w3.org/2000/svg">
<g clip-path="url(#clip0_1229_244)">
<path d="M66.01 1.82001L66.12 57.82C66.1548 63.5032 64.5921 69.0819 61.61 73.92C58.6238 78.7722 54.4487 82.782 49.48 85.57C44.488 88.4473 38.8218 89.9484 33.06 89.92C27.2896 89.9645 21.615 88.4439 16.64 85.52C11.5933 82.6334 7.39052 78.4755 4.45001 73.46C1.50145 68.4528 -0.0363024 62.7407 3.20398e-06 56.93C-0.0608322 51.0955 1.50057 45.3588 4.51001 40.36C7.37971 35.3363 11.5175 31.1537 16.51 28.23C21.0954 25.5835 26.2523 24.0842 31.5418 23.8596C36.8313 23.635 42.0968 24.6918 46.89 26.94V36.6C48.9225 37.9992 50.7616 39.6602 52.36 41.54V1.82001H57.73V55.28H57.62V55.81C57.6196 56.0077 57.6363 56.2052 57.67 56.4C57.7079 56.5606 57.728 56.725 57.73 56.89C57.741 61.207 56.5498 65.4418 54.29 69.12C52.2023 72.844 49.1661 75.9491 45.49 78.12C41.7432 80.3644 37.4576 81.5498 33.09 81.5498C28.7224 81.5498 24.4368 80.3644 20.69 78.12C17.0181 75.9497 13.9562 72.8843 11.79 69.21C10.1917 66.5814 9.13121 63.6616 8.67001 60.62H5.58001C6.07554 64.1857 7.27914 67.6163 9.12001 70.71C11.566 74.9462 15.0838 78.4641 19.32 80.91C23.4258 83.2432 28.0566 84.4965 32.7787 84.5525C37.5009 84.6084 42.16 83.4653 46.32 81.23C50.7054 78.8461 54.4013 75.3707 57.05 71.14C59.4656 67.1226 60.7284 62.5176 60.7 57.83L60.59 9.83001V1.83001L66.01 1.82001ZM9.23001 43.04C6.95033 46.7312 5.65573 50.9456 5.47 55.28H13.85C13.77 56.06 13.74 56.6 13.74 56.89C13.6911 60.3 14.6212 63.6526 16.42 66.55C18.1149 69.4447 20.5253 71.8551 23.42 73.55C26.3444 75.2561 29.6693 76.1551 33.055 76.1551C36.4407 76.1551 39.7656 75.2561 42.69 73.55C45.5803 71.7885 47.9861 69.3346 49.69 66.41C51.423 63.5086 52.3323 60.1896 52.32 56.81C52.3216 56.0181 52.248 55.2279 52.1 54.45C52.03 53.95 51.93 53.32 51.78 52.57C51.3995 51.1878 50.8802 49.8477 50.23 48.57C49.3995 46.7386 48.3375 45.0212 47.07 43.46C45.5061 41.7311 43.6034 40.3423 41.48 39.38C38.8531 38.1267 35.97 37.5035 33.06 37.56C29.65 37.5111 26.2974 38.4412 23.4 40.24C20.4788 41.9358 18.0625 44.3797 16.4 47.32C15.9142 48.151 15.4833 49.0128 15.11 49.9H9.44001C10.055 48.0378 10.8487 46.2394 11.81 44.53C13.9364 40.8251 17.0075 37.7506 20.71 35.62C24.4131 33.3172 28.6998 32.1266 33.06 32.19C35.9618 32.1992 38.8368 32.745 41.54 33.8V30.59C38.5284 29.5979 35.3702 29.1245 32.2 29.19C27.8334 29.3165 23.5621 30.4966 19.75 32.63C15.3315 35.0381 11.6844 38.647 9.23001 43.04Z" fill="#64FFC4"/>
<path d="M131.81 38.21C135.519 43.734 137.499 50.2366 137.5 56.89C137.5 58.6482 137.393 60.4048 137.18 62.15L136.85 62.04V62.15L87.05 63.46C87.5675 66.1457 88.877 68.615 90.81 70.55C92.6914 72.5213 95.0058 74.0277 97.57 74.95C99.7558 75.8177 102.088 76.2557 104.44 76.24C107.194 76.2475 109.919 75.6786 112.44 74.57C114.941 73.4947 117.164 71.8634 118.94 69.8L123.94 71.73C123.633 72.2118 123.299 72.6759 122.94 73.12C122.012 74.1795 120.988 75.1504 119.88 76.02C118.256 77.3978 116.457 78.5545 114.53 79.46C111.37 80.9211 107.921 81.6525 104.44 81.6C101.463 81.6358 98.5073 81.0889 95.74 79.99C92.3502 78.9205 89.3106 76.9586 86.94 74.31C84.9802 71.9902 83.3883 69.3831 82.22 66.58C81.3261 64.6511 80.781 62.5791 80.61 60.46V58.46L131.7 58.14C131.7 57.35 131.65 56.35 131.54 55.14C131.258 53.0072 130.847 50.8933 130.31 48.81C129.739 46.156 128.724 43.6172 127.31 41.3C124.778 37.311 121.145 34.1401 116.85 32.17C113.041 30.3431 108.884 29.3542 104.66 29.27C99.0525 29.2849 93.5781 30.9802 88.9436 34.1371C84.3091 37.2939 80.7271 41.7674 78.66 46.98C78.58 47.34 78.33 48.34 77.91 49.98H81.34C82.5335 46.0404 84.6368 42.4367 87.48 39.46C89.4731 37.4055 91.8518 35.7642 94.48 34.63C97.4031 33.2266 100.582 32.4361 103.822 32.3071C107.062 32.1781 110.295 32.7134 113.32 33.88C116.62 35.0393 119.605 36.9495 122.04 39.46C122.85 40.1829 123.584 40.9871 124.23 41.86C125.457 43.5646 126.403 45.4554 127.03 47.46C127.603 49.0761 127.982 50.7545 128.16 52.46L128.37 54.39L91.66 54.6V50.46L122.04 50.35C121.835 49.215 121.396 48.1353 120.75 47.18C119.829 45.676 118.749 44.2747 117.53 43C115.975 41.3948 114.116 40.1164 112.06 39.24C109.731 38.1919 107.204 37.6597 104.65 37.68C100.734 37.5647 96.8885 38.7343 93.7 41.01C91.6462 42.4829 89.9396 44.3875 88.7 46.59C87.6456 48.318 86.8694 50.201 86.4 52.17L85.98 54.46H77.07C77.07 54.53 77.07 54.85 76.96 55.46C76.8968 55.9242 76.8601 56.3916 76.85 56.86C76.8737 62.4411 78.5968 67.8826 81.79 72.46C84.3186 76.4668 87.9413 79.6661 92.23 81.68C96.0527 83.5193 100.228 84.5087 104.47 84.58C109.13 84.616 113.718 83.4336 117.78 81.15C119.444 80.2472 120.992 79.1459 122.39 77.87C123.652 76.79 124.839 75.6239 125.94 74.38L127.12 72.99L132.27 74.92C129.276 79.5525 125.145 83.3398 120.27 85.92C115.415 88.5676 109.97 89.9436 104.44 89.92C99.4229 89.8505 94.4801 88.6975 89.95 86.54C84.8015 84.1061 80.447 80.2647 77.39 75.46C73.5559 69.9849 71.4964 63.4641 71.49 56.78C71.4987 52.7835 72.2234 48.8209 73.63 45.08C76.0567 38.8114 80.3459 33.4368 85.92 29.68C91.4091 25.8421 97.9523 23.7984 104.65 23.83C109.643 23.9081 114.564 25.0394 119.09 27.15C124.287 29.5658 128.696 33.3995 131.81 38.21Z" fill="#64FFC4"/>
<path d="M199.23 37.57C202.106 42.2049 203.594 47.5661 203.52 53.02L203.23 89.95H189.56V53.02C189.654 50.9023 189.262 48.7913 188.414 46.8483C187.567 44.9053 186.286 43.182 184.67 41.81C181.279 39.1285 177.083 37.6696 172.76 37.6696C168.437 37.6696 164.241 39.1285 160.85 41.81C159.234 43.182 157.953 44.9053 157.106 46.8483C156.258 48.7913 155.866 50.9023 155.96 53.02V58.02H150.59V53.02C150.59 46.58 152.88 41.4633 157.46 37.67C161.753 34.0741 167.211 32.1683 172.81 32.31C178.405 32.1902 183.856 34.0934 188.16 37.67C192.667 41.47 194.923 46.5867 194.93 53.02V84.58H197.93L198.04 53.02C198.132 48.6383 196.977 44.3207 194.71 40.57C192.351 37.0659 189.136 34.2226 185.37 32.31C181.5 30.3332 177.216 29.3025 172.87 29.3025C168.524 29.3025 164.24 30.3332 160.37 32.31C156.48 34.1645 153.213 37.109 150.966 40.7856C148.718 44.4622 147.587 48.7126 147.71 53.02V63.46H155.97V89.98H150.6V68.8H147.71V89.95H142.33V53.02C142.21 47.7044 143.624 42.4667 146.403 37.9338C149.182 33.4008 153.208 29.7645 158 27.46C162.622 25.1098 167.735 23.8849 172.92 23.8849C178.106 23.8849 183.218 25.1098 187.84 27.46C192.43 29.813 196.349 33.2914 199.23 37.57Z" fill="#64FFC4"/>
<path d="M266.73 37.57C269.613 42.202 271.106 47.5645 271.03 53.02L270.71 89.95H257.07V53.02C257.168 50.9065 256.783 48.7985 255.945 46.856C255.106 44.9136 253.836 43.1878 252.23 41.81C248.837 39.1293 244.639 37.6712 240.315 37.6712C235.991 37.6712 231.793 39.1293 228.4 41.81C225.14 44.5633 223.513 48.3 223.52 53.02V58.02H218.15V53.02C218.15 46.58 220.44 41.4633 225.02 37.67C229.313 34.0741 234.771 32.1683 240.37 32.31C245.965 32.192 251.415 34.095 255.72 37.67C260.227 41.47 262.48 46.5867 262.48 53.02V84.58H265.48L265.58 53.02C265.661 48.637 264.5 44.3206 262.23 40.57C259.864 37.072 256.651 34.2303 252.89 32.31C249.02 30.3332 244.736 29.3025 240.39 29.3025C236.044 29.3025 231.76 30.3332 227.89 32.31C224.003 34.1675 220.738 37.1127 218.49 40.7886C216.243 44.4645 215.111 48.7133 215.23 53.02V63.46H223.5V89.98H218.13V68.8H215.23V89.95H209.86V53.02C209.743 47.7062 211.157 42.4708 213.934 37.9387C216.711 33.4066 220.733 29.769 225.52 27.46C230.142 25.1098 235.254 23.8849 240.44 23.8849C245.625 23.8849 250.738 25.1098 255.36 27.46C259.945 29.8121 263.858 33.291 266.73 37.57Z" fill="#64FFC4"/>
<path d="M292.55 15.29C291.292 16.5621 289.684 17.4306 287.931 17.7845C286.177 18.1385 284.358 17.9618 282.705 17.2772C281.053 16.5925 279.641 15.4308 278.652 13.9405C277.662 12.4502 277.14 10.6989 277.15 8.91002C277.124 7.72855 277.345 6.55465 277.797 5.4631C278.25 4.37154 278.925 3.38626 279.78 2.57001C281.497 0.921758 283.785 0.00134277 286.165 0.00134277C288.545 0.00134277 290.833 0.921758 292.55 2.57001C293.412 3.38302 294.096 4.36655 294.557 5.45805C295.018 6.54955 295.248 7.72513 295.23 8.91002C295.243 10.1002 295.013 11.2805 294.552 12.3779C294.091 13.4753 293.409 14.4665 292.55 15.29ZM289.06 51.52V23.61H294.43V56.78H283.91V84.46H289.06V62.04H294.43V89.84H278.54V23.61H283.91V51.52H289.06ZM286.23 5.36002C285.747 5.34495 285.266 5.42556 284.815 5.59718C284.364 5.76881 283.951 6.02807 283.6 6.36002C283.25 6.68045 282.973 7.07195 282.787 7.50828C282.6 7.94461 282.509 8.41571 282.52 8.89001C282.512 9.36897 282.603 9.84444 282.787 10.2867C282.971 10.7289 283.244 11.1283 283.59 11.46C283.93 11.8164 284.34 12.0983 284.794 12.2876C285.249 12.477 285.738 12.5698 286.23 12.56C286.71 12.5685 287.187 12.4748 287.628 12.2852C288.07 12.0955 288.466 11.8143 288.79 11.46C289.118 11.1187 289.375 10.7159 289.547 10.2749C289.718 9.8338 289.801 9.36316 289.79 8.89001C289.805 8.4224 289.724 7.95672 289.552 7.52163C289.38 7.08654 289.12 6.69123 288.79 6.36002C288.453 6.02874 288.053 5.7693 287.613 5.59741C287.172 5.42552 286.702 5.34475 286.23 5.36002Z" fill="#64FFC4"/>
<path d="M345.95 54.85C351.457 57.9167 354.21 62.25 354.21 67.85C354.168 69.5869 353.953 71.3154 353.57 73.01C352.991 75.7145 351.839 78.2634 350.191 80.4851C348.544 82.7069 346.44 84.5499 344.02 85.89C338.58 89.0367 331.887 90.37 323.94 89.89L304.84 87.96V83.56L312.89 84.31C318.89 84.9767 322.97 85.37 325.13 85.49C326.05 85.56 326.99 85.6 327.92 85.6C333.353 85.6 337.647 84.6667 340.8 82.8C343.721 81.0282 346.012 78.3838 347.35 75.24C348.74 72.3158 349.117 69.0119 348.42 65.85C348.163 64.4891 347.579 63.2111 346.718 62.1258C345.858 61.0406 344.747 60.1807 343.48 59.62C340.546 58.3718 337.54 57.2966 334.48 56.4L333.48 59.73C335.065 60.1161 336.609 60.6553 338.09 61.34C342.17 63.4133 344.21 66.49 344.21 70.57C344.236 71.438 344.128 72.3048 343.89 73.14C343.505 74.7637 342.739 76.2725 341.656 77.5418C340.573 78.8111 339.203 79.8045 337.66 80.44C334.584 81.6319 331.296 82.1798 328 82.05H326.63C325.05 82.05 322.46 81.86 318.85 81.46C315.24 81.06 311.99 80.7 309.13 80.34L304.84 79.8L304.95 74.75C312.122 75.9796 319.362 76.771 326.63 77.12C330.49 77.19 333.39 76.79 335.32 75.94C336.394 75.5212 337.312 74.7801 337.948 73.8185C338.583 72.857 338.906 71.7221 338.87 70.57C338.87 68.64 337.76 67.13 335.54 66.06C332.877 65.116 330.15 64.3641 327.38 63.81L329.85 55.22C329.678 55.1434 329.496 55.0897 329.31 55.06C329.127 55.0305 328.949 54.9767 328.78 54.9C322.193 53.1467 318.343 52 317.23 51.46C314.44 50.32 312.55 48.94 311.54 47.33C310.493 45.5161 310.078 43.4055 310.36 41.33C310.449 39.6163 311.091 37.9777 312.19 36.66C313.171 35.4735 314.447 34.5663 315.89 34.03C317.249 33.538 318.652 33.1797 320.08 32.96C321.232 32.7582 322.403 32.6877 323.57 32.75L324.96 32.85L341.76 34.46V31.46C335.473 30.6 330.393 30.0267 326.52 29.74C324.44 29.74 322.39 29.74 320.35 29.74C318.16 29.7281 315.989 30.146 313.96 30.97C311.83 31.7685 309.972 33.1557 308.6 34.97C307.586 36.4306 306.857 38.0692 306.45 39.8C305.967 41.4712 305.821 43.2218 306.02 44.95C306.299 46.8761 307.082 48.6945 308.288 50.2219C309.494 51.7493 311.081 52.9317 312.89 53.65C313.867 54.1308 314.869 54.5613 315.89 54.94C317.04 55.37 318.08 55.73 319.01 56.01L321.64 56.82C322.46 57.07 323.09 57.26 323.52 57.41L324.27 57.51L322.76 62.77C318.65 61.5884 314.619 60.1489 310.69 58.46C307.839 57.2952 305.316 55.4518 303.34 53.09C301.501 50.7342 300.549 47.8069 300.65 44.82C300.621 40.8543 301.679 36.9565 303.71 33.55C305.535 30.2785 308.495 27.7884 312.03 26.55C314.963 25.47 319.007 24.9333 324.16 24.94C331.677 25.0339 339.175 25.7026 346.59 26.94L346.38 38.94L324.7 37.11C319.467 37.0367 316.497 38.47 315.79 41.41C315.713 41.8355 315.676 42.2675 315.68 42.7C315.68 44.2 316.93 45.42 319.44 46.34C320.153 46.7667 323.73 47.8433 330.17 49.57C337.47 51.4367 342.73 53.1967 345.95 54.85Z" fill="#64FFC4"/>
</g>
<defs>
<clipPath id="clip0_1229_244">
<rect width="354.22" height="89.95" fill="white"/>
</clipPath>
</defs>
</svg>
